<?xml version="1.0" encoding="iso-8859-1"?>
<!-- Generator: Adobe Illustrator 19.0.0, SVG Export Plug-In . SVG Version: 6.00 Build 0)  -->
<svg version="1.1" id="Layer_1" xmlns="http://www.w3.org/2000/svg" xmlns:xlink="http://www.w3.org/1999/xlink" x="0px" y="0px"
	 viewBox="0 0 512 512" style="enable-background:new 0 0 512 512;" xml:space="preserve">
<polygon style="fill:#D0FBFD;" points="449.362,8.17 449.362,438.468 394.894,460.255 416.681,8.17 "/>
<polygon style="fill:#F0FEFF;" points="62.638,8.17 62.638,503.83 384,503.83 416.681,449.362 416.681,8.17 "/>
<polygon style="fill:#FFCD60;" points="384,73.532 384,133.447 329.532,155.234 351.319,73.532 "/>
<g>
	<polygon style="fill:#FFDB8A;" points="351.319,73.532 351.319,133.447 272.34,155.234 193.362,133.447 215.149,73.532 	"/>
	<polygon style="fill:#FFDB8A;" points="384,133.447 384,193.362 329.532,215.149 351.319,133.447 	"/>
</g>
<polygon style="fill:#FFEAB5;" points="351.319,133.447 351.319,193.362 272.34,215.149 193.362,193.362 215.149,133.447 "/>
<polygon style="fill:#50D1DD;" points="449.362,438.468 384,503.83 384,438.468 416.681,438.468 "/>
<polygon style="fill:#FFCD60;" points="384,193.362 384,253.277 329.532,275.064 351.319,193.362 "/>
<g>
	<polygon style="fill:#FFDB8A;" points="351.319,193.362 351.319,253.277 272.34,275.064 193.362,253.277 215.149,193.362 	"/>
	<polygon style="fill:#FFDB8A;" points="384,313.191 384,253.277 351.319,253.277 329.532,334.979 	"/>
</g>
<polygon style="fill:#FFEAB5;" points="351.319,313.191 351.319,253.277 215.149,253.277 193.362,313.191 272.34,334.979 "/>
<rect x="215.149" y="313.191" style="fill:#FFDB8A;" width="136.17" height="59.915"/>
<rect x="351.319" y="313.191" style="fill:#FFCD60;" width="32.681" height="59.915"/>
<polygon style="fill:#FF9269;" points="215.149,73.532 215.149,133.447 171.574,155.234 128,133.447 128,73.532 "/>
<polygon style="fill:#FFB082;" points="215.149,133.447 215.149,193.362 171.574,215.149 128,193.362 128,133.447 "/>
<polygon style="fill:#FF9269;" points="215.149,193.362 215.149,253.277 171.574,275.064 128,253.277 128,193.362 "/>
<polygon style="fill:#FFB082;" points="215.149,253.277 215.149,313.191 171.574,334.979 128,313.191 128,253.277 "/>
<rect x="128" y="313.191" style="fill:#FF9269;" width="87.149" height="59.915"/>
<path d="M449.362,0H62.638c-4.512,0-8.17,3.658-8.17,8.17v495.66c0,4.512,3.658,8.17,8.17,8.17H384c2.167,0,4.244-0.861,5.778-2.393
	l65.362-65.362c1.532-1.532,2.392-3.61,2.392-5.777V8.17C457.532,3.658,453.875,0,449.362,0z M70.809,16.34h370.383v413.957H384
	c-4.513,0-8.17,3.658-8.17,8.17v57.191H70.809V16.34z M429.638,446.638l-37.468,37.468v-37.468H429.638z"/>
<path d="M128,381.277h256c4.513,0,8.17-3.658,8.17-8.17V73.532c0-4.512-3.657-8.17-8.17-8.17H128c-4.512,0-8.17,3.658-8.17,8.17
	v299.574C119.83,377.618,123.488,381.277,128,381.277z M206.979,261.447v43.574H136.17v-43.574H206.979z M136.17,245.106v-43.574
	h70.809v43.574H136.17z M223.319,261.447h59.915c4.513,0,8.17-3.658,8.17-8.17c0-4.512-3.657-8.17-8.17-8.17h-59.915v-43.574H375.83
	v43.574h-59.915c-4.513,0-8.17,3.658-8.17,8.17c0,4.512,3.657,8.17,8.17,8.17h59.915v43.574H223.319V261.447z M375.83,185.191
	H223.319v-43.574H375.83V185.191z M206.979,185.191H136.17v-43.574h70.809V185.191z M136.17,321.362h70.809v43.574H136.17V321.362z
	 M223.319,364.936v-43.574H375.83v43.574H223.319z M375.83,125.277H223.319V81.702H375.83V125.277z M206.979,81.702v43.574H136.17
	V81.702H206.979z"/>
<path d="M302.298,397.617H128c-4.512,0-8.17,3.658-8.17,8.17c0,4.512,3.658,8.17,8.17,8.17h174.298c4.513,0,8.17-3.658,8.17-8.17
	C310.468,401.275,306.811,397.617,302.298,397.617z"/>
<path d="M215.149,430.298H128c-4.512,0-8.17,3.658-8.17,8.17c0,4.512,3.658,8.17,8.17,8.17h87.149c4.512,0,8.17-3.658,8.17-8.17
	C223.319,433.956,219.661,430.298,215.149,430.298z"/>
<g>
</g>
<g>
</g>
<g>
</g>
<g>
</g>
<g>
</g>
<g>
</g>
<g>
</g>
<g>
</g>
<g>
</g>
<g>
</g>
<g>
</g>
<g>
</g>
<g>
</g>
<g>
</g>
<g>
</g>
</svg>
